# Blender v2.79 (sub 0) OBJ File: 'clock.blend'
# www.blender.org
mtllib clock.mtl
o Cube
v 0.179936 -0.331973 -1.000000
v 0.179936 -0.331973 1.000000
v -0.179936 -0.331973 1.000000
v -0.179935 -0.331973 -1.000000
v 0.179936 0.331973 -1.000000
v 0.179935 0.331973 1.000001
v -0.179936 0.331973 1.000000
v -0.179936 0.331973 -1.000000
v 0.179936 -0.331973 -0.915228
v 0.179936 -0.331973 0.924770
v 0.179936 -0.249570 -1.000000
v 0.179936 0.239539 -1.000000
v 0.179935 -0.249570 1.000000
v 0.179935 0.239539 1.000000
v 0.179936 0.331973 -0.915228
v 0.179935 0.331973 0.924771
v 0.179936 -0.249570 -0.915228
v 0.179936 -0.249570 0.924770
v 0.179936 0.239539 -0.915228
v 0.179935 0.239539 0.924771
v 0.123839 -0.249570 -0.915228
v 0.123839 -0.249570 0.924770
v 0.123839 0.239539 -0.915228
v 0.123839 0.239539 0.924771
vn 0.0000 -1.0000 0.0000
vn 0.0000 1.0000 0.0000
vn 1.0000 0.0000 0.0000
vn -0.0000 -0.0000 1.0000
vn -1.0000 -0.0000 -0.0000
vn 0.0000 0.0000 -1.0000
usemtl Material.001
s off
f 1//1 9//1 10//1 2//1 3//1 4//1
f 5//2 8//2 7//2 6//2 16//2 15//2
f 20//3 16//3 6//3 14//3
f 2//4 13//4 14//4 6//4 7//4 3//4
f 3//5 7//5 8//5 4//5
f 5//6 12//6 11//6 1//6 4//6 8//6
f 10//3 18//3 13//3 2//3
f 18//3 20//3 14//3 13//3
f 1//3 11//3 17//3 9//3
f 9//3 17//3 18//3 10//3
f 11//3 12//3 19//3 17//3
f 20//6 18//6 22//6 24//6
f 12//3 5//3 15//3 19//3
f 19//3 15//3 16//3 20//3
f 19//1 20//1 24//1 23//1
f 17//4 19//4 23//4 21//4
f 18//2 17//2 21//2 22//2
usemtl Material.002
f 21//3 23//3 24//3 22//3
